# Blender v2.82 (sub 7) OBJ File: ''
# www.blender.org
mtllib rubis.mtl
o Object_3_Mesh_0
v 5.615100 -0.424600 4.175301
v 5.615100 10.383303 4.175301
v 0.000000 15.451504 4.175301
v 0.000000 -5.492802 4.175301
v -5.615100 10.383303 4.175301
v -5.615100 -0.424600 4.175301
v -9.217500 -4.250601 0.376000
v -0.544100 -12.156403 0.377400
v -0.542700 -6.423301 3.816801
v -0.542700 -6.423301 3.816801
v -6.099400 -1.409600 3.817901
v -9.217500 -4.250601 0.376000
v 0.544100 -12.156403 0.377400
v 9.217500 -4.250601 0.376000
v 6.099400 -1.409600 3.817901
v 6.099400 -1.409600 3.817901
v 0.542700 -6.423301 3.816801
v 0.544100 -12.156403 0.377400
v 9.629500 -3.093501 0.426900
v 9.629500 13.052303 0.426900
v 6.601000 10.292502 3.766701
v 6.601000 -0.333800 3.766701
v 9.217500 14.209404 0.376000
v 0.544100 22.115206 0.377400
v 0.542700 16.382103 3.816801
v 0.542700 16.382103 3.816801
v 6.099400 11.368303 3.817901
v 9.217500 14.209404 0.376000
v -0.544100 22.115206 0.377400
v -9.217500 14.209404 0.376000
v -6.099400 11.368303 3.817901
v -6.099400 11.368303 3.817901
v -0.542700 16.382103 3.816801
v -0.544100 22.115206 0.377400
v -9.629500 13.052303 0.426900
v -9.629500 -3.093501 0.426900
v -6.601000 -0.333800 3.766701
v -6.601000 10.292502 3.766701
v -5.615100 -0.424600 -4.175301
v -5.615100 10.383303 -4.175301
v 0.000000 15.451504 -4.175301
v 0.000000 -5.492802 -4.175301
v 5.615100 10.383303 -4.175301
v 5.615100 -0.424600 -4.175301
v 9.219000 -4.251901 -0.340900
v 0.543400 -12.159603 -0.342200
v 0.542000 -6.421402 -3.815101
v 0.542000 -6.421402 -3.815101
v 6.098100 -1.408300 -3.816201
v 9.219000 -4.251901 -0.340900
v -0.543400 -12.159603 -0.342200
v -9.219000 -4.251901 -0.340900
v -6.098100 -1.408300 -3.816201
v -6.098100 -1.408300 -3.816201
v -0.542000 -6.421402 -3.815101
v -0.543400 -12.159603 -0.342200
v -9.631600 -3.096301 -0.391500
v -9.631600 13.055103 -0.391500
v -6.598900 10.291603 -3.765401
v -6.598900 -0.332800 -3.765401
v -9.219000 14.210704 -0.340900
v -0.543400 22.118406 -0.342200
v -0.542000 16.380203 -3.815101
v -0.542000 16.380203 -3.815101
v -6.098100 11.367002 -3.816201
v -9.219000 14.210704 -0.340900
v 0.543400 22.118406 -0.342200
v 9.219000 14.210704 -0.340900
v 6.098100 11.367002 -3.816201
v 6.098100 11.367002 -3.816201
v 0.542000 16.380203 -3.815101
v 0.543400 22.118406 -0.342200
v 9.631600 13.055103 -0.391500
v 9.631600 -3.096301 -0.391500
v 6.598900 -0.332800 -3.765401
v 6.598900 10.291603 -3.765401
v -5.615100 -0.424600 4.175301
v -6.601000 -0.333800 3.766701
v -6.099400 -1.409600 3.817901
v -0.542700 -6.423301 3.816801
v 0.542700 -6.423301 3.816801
v 0.000000 -5.492802 4.175301
v 6.099400 -1.409600 3.817901
v 6.601000 -0.333800 3.766701
v 5.615100 -0.424600 4.175301
v 6.601000 10.292502 3.766701
v 6.099400 11.368303 3.817901
v 5.615100 10.383303 4.175301
v 0.542700 16.382103 3.816801
v -0.542700 16.382103 3.816801
v 0.000000 15.451504 4.175301
v -5.615100 10.383303 4.175301
v -6.099400 11.368303 3.817901
v -6.601000 10.292502 3.766701
v 5.615100 -0.424600 -4.175301
v 6.598900 -0.332800 -3.765401
v 6.098100 -1.408300 -3.816201
v 0.542000 -6.421402 -3.815101
v -0.542000 -6.421402 -3.815101
v 0.000000 -5.492802 -4.175301
v 0.000000 15.451504 -4.175301
v -0.542000 16.380203 -3.815101
v 0.542000 16.380203 -3.815101
v 5.615100 10.383303 -4.175301
v 6.098100 11.367002 -3.816201
v 6.598900 10.291603 -3.765401
v -6.098100 -1.408300 -3.816201
v -6.598900 -0.332800 -3.765401
v -5.615100 -0.424600 -4.175301
v -5.615100 10.383303 -4.175301
v -6.598900 10.291603 -3.765401
v -6.098100 11.367002 -3.816201
v 9.217500 -4.250601 0.376000
v 9.219000 -4.251901 -0.340900
v 9.631600 -3.096301 -0.391500
v 9.631600 -3.096301 -0.391500
v 9.629500 -3.093501 0.426900
v 9.217500 -4.250601 0.376000
v -0.544100 -12.156403 0.377400
v -0.543400 -12.159603 -0.342200
v 0.543400 -12.159603 -0.342200
v 0.544100 -12.156403 0.377400
v -9.629500 -3.093501 0.426900
v -9.631600 -3.096301 -0.391500
v -9.219000 -4.251901 -0.340900
v -9.219000 -4.251901 -0.340900
v -9.217500 -4.250601 0.376000
v -9.629500 -3.093501 0.426900
v -9.217500 14.209404 0.376000
v -9.219000 14.210704 -0.340900
v -9.631600 13.055103 -0.391500
v -9.631600 13.055103 -0.391500
v -9.629500 13.052303 0.426900
v -9.217500 14.209404 0.376000
v 0.544100 22.115206 0.377400
v 0.543400 22.118406 -0.342200
v -0.543400 22.118406 -0.342200
v -0.544100 22.115206 0.377400
v 9.629500 13.052303 0.426900
v 9.631600 13.055103 -0.391500
v 9.219000 14.210704 -0.340900
v 9.219000 14.210704 -0.340900
v 9.217500 14.209404 0.376000
v 9.629500 13.052303 0.426900
v -5.615100 -0.424600 4.175301
v -6.099400 -1.409600 3.817901
v -0.542700 -6.423301 3.816801
v -0.542700 -6.423301 3.816801
v 0.000000 -5.492802 4.175301
v -5.615100 -0.424600 4.175301
v 0.000000 -5.492802 4.175301
v 0.542700 -6.423301 3.816801
v 6.099400 -1.409600 3.817901
v 6.099400 -1.409600 3.817901
v 5.615100 -0.424600 4.175301
v 0.000000 -5.492802 4.175301
v 5.615100 -0.424600 4.175301
v 6.601000 -0.333800 3.766701
v 6.601000 10.292502 3.766701
v 5.615100 10.383303 4.175301
v 5.615100 10.383303 4.175301
v 6.099400 11.368303 3.817901
v 0.542700 16.382103 3.816801
v 0.542700 16.382103 3.816801
v 0.000000 15.451504 4.175301
v 5.615100 10.383303 4.175301
v 0.000000 15.451504 4.175301
v -0.542700 16.382103 3.816801
v -6.099400 11.368303 3.817901
v -6.099400 11.368303 3.817901
v -5.615100 10.383303 4.175301
v 0.000000 15.451504 4.175301
v -5.615100 10.383303 4.175301
v -6.601000 10.292502 3.766701
v -6.601000 -0.333800 3.766701
v -5.615100 -0.424600 4.175301
v -9.629500 -3.093501 0.426900
v -9.217500 -4.250601 0.376000
v -6.099400 -1.409600 3.817901
v -6.099400 -1.409600 3.817901
v -6.601000 -0.333800 3.766701
v -9.629500 -3.093501 0.426900
v -0.544100 -12.156403 0.377400
v 0.544100 -12.156403 0.377400
v 0.542700 -6.423301 3.816801
v -0.542700 -6.423301 3.816801
v 9.217500 -4.250601 0.376000
v 9.629500 -3.093501 0.426900
v 6.601000 -0.333800 3.766701
v 6.601000 -0.333800 3.766701
v 6.099400 -1.409600 3.817901
v 9.217500 -4.250601 0.376000
v 9.629500 13.052303 0.426900
v 9.217500 14.209404 0.376000
v 6.099400 11.368303 3.817901
v 6.099400 11.368303 3.817901
v 6.601000 10.292502 3.766701
v 9.629500 13.052303 0.426900
v 0.544100 22.115206 0.377400
v -0.544100 22.115206 0.377400
v -0.542700 16.382103 3.816801
v 0.542700 16.382103 3.816801
v -9.217500 14.209404 0.376000
v -9.629500 13.052303 0.426900
v -6.601000 10.292502 3.766701
v -6.601000 10.292502 3.766701
v -6.099400 11.368303 3.817901
v -9.217500 14.209404 0.376000
v 5.615100 -0.424600 -4.175301
v 6.098100 -1.408300 -3.816201
v 0.542000 -6.421402 -3.815101
v 0.542000 -6.421402 -3.815101
v 0.000000 -5.492802 -4.175301
v 5.615100 -0.424600 -4.175301
v 0.000000 15.451504 -4.175301
v 0.542000 16.380203 -3.815101
v 6.098100 11.367002 -3.816201
v 6.098100 11.367002 -3.816201
v 5.615100 10.383303 -4.175301
v 0.000000 15.451504 -4.175301
v 5.615100 10.383303 -4.175301
v 6.598900 10.291603 -3.765401
v 6.598900 -0.332800 -3.765401
v 5.615100 -0.424600 -4.175301
v 0.000000 -5.492802 -4.175301
v -0.542000 -6.421402 -3.815101
v -6.098100 -1.408300 -3.816201
v -6.098100 -1.408300 -3.816201
v -5.615100 -0.424600 -4.175301
v 0.000000 -5.492802 -4.175301
v -5.615100 -0.424600 -4.175301
v -6.598900 -0.332800 -3.765401
v -6.598900 10.291603 -3.765401
v -5.615100 10.383303 -4.175301
v -5.615100 10.383303 -4.175301
v -6.098100 11.367002 -3.816201
v -0.542000 16.380203 -3.815101
v -0.542000 16.380203 -3.815101
v 0.000000 15.451504 -4.175301
v -5.615100 10.383303 -4.175301
v 9.219000 -4.251901 -0.340900
v 9.217500 -4.250601 0.376000
v 0.544100 -12.156403 0.377400
v 0.543400 -12.159603 -0.342200
v 0.543400 -12.159603 -0.342200
v -0.543400 -12.159603 -0.342200
v -0.542000 -6.421402 -3.815101
v 0.542000 -6.421402 -3.815101
v 9.631600 -3.096301 -0.391500
v 9.219000 -4.251901 -0.340900
v 6.098100 -1.408300 -3.816201
v 6.098100 -1.408300 -3.816201
v 6.598900 -0.332800 -3.765401
v 9.631600 -3.096301 -0.391500
v -0.543400 -12.159603 -0.342200
v -0.544100 -12.156403 0.377400
v -9.217500 -4.250601 0.376000
v -9.219000 -4.251901 -0.340900
v -9.219000 -4.251901 -0.340900
v -9.631600 -3.096301 -0.391500
v -6.598900 -0.332800 -3.765401
v -6.598900 -0.332800 -3.765401
v -6.098100 -1.408300 -3.816201
v -9.219000 -4.251901 -0.340900
v -9.631600 -3.096301 -0.391500
v -9.629500 -3.093501 0.426900
v -9.629500 13.052303 0.426900
v -9.631600 13.055103 -0.391500
v -9.631600 13.055103 -0.391500
v -9.219000 14.210704 -0.340900
v -6.098100 11.367002 -3.816201
v -6.098100 11.367002 -3.816201
v -6.598900 10.291603 -3.765401
v -9.631600 13.055103 -0.391500
v -9.219000 14.210704 -0.340900
v -9.217500 14.209404 0.376000
v -0.544100 22.115206 0.377400
v -0.543400 22.118406 -0.342200
v -0.543400 22.118406 -0.342200
v 0.543400 22.118406 -0.342200
v 0.542000 16.380203 -3.815101
v -0.542000 16.380203 -3.815101
v 0.543400 22.118406 -0.342200
v 0.544100 22.115206 0.377400
v 9.217500 14.209404 0.376000
v 9.219000 14.210704 -0.340900
v 9.219000 14.210704 -0.340900
v 9.631600 13.055103 -0.391500
v 6.598900 10.291603 -3.765401
v 6.598900 10.291603 -3.765401
v 6.098100 11.367002 -3.816201
v 9.219000 14.210704 -0.340900
v 9.631600 13.055103 -0.391500
v 9.629500 13.052303 0.426900
v 9.629500 -3.093501 0.426900
v 9.631600 -3.096301 -0.391500
vn 0.0000 0.0000 1.0000
vn -0.4246 -0.4657 0.7764
vn -0.4246 -0.4708 0.7733
vn 0.4270 -0.4684 0.7735
vn 0.4208 -0.4666 0.7779
vn 0.7408 0.0000 0.6717
vn 0.4246 0.4657 0.7764
vn 0.4246 0.4708 0.7733
vn -0.4270 0.4684 0.7735
vn -0.4209 0.4666 0.7779
vn -0.7408 0.0000 0.6717
vn -0.0000 0.0000 -1.0000
vn 0.4268 -0.4682 -0.7737
vn 0.4269 -0.4733 -0.7706
vn -0.4293 -0.4708 -0.7707
vn -0.4231 -0.4691 -0.7752
vn -0.7437 0.0000 -0.6685
vn -0.4268 0.4682 -0.7737
vn -0.4269 0.4733 -0.7706
vn 0.4293 0.4708 -0.7707
vn 0.4231 0.4691 -0.7752
vn 0.7437 0.0000 -0.6685
vn -0.3900 -0.1385 0.9103
vn 0.0000 -0.3595 0.9331
vn 0.3900 -0.1385 0.9103
vn 0.3900 0.1385 0.9103
vn 0.0000 0.3595 0.9332
vn -0.3900 0.1385 0.9103
vn 0.3919 -0.1395 -0.9094
vn 0.0000 -0.3616 -0.9323
vn 0.0000 0.3616 -0.9323
vn 0.3919 0.1395 -0.9094
vn -0.3919 -0.1395 -0.9094
vn -0.3919 0.1395 -0.9094
vn 0.9418 -0.3362 0.0026
vn 0.9420 -0.3356 0.0036
vn 0.0000 -1.0000 0.0044
vn -0.9418 -0.3361 0.0036
vn -0.9420 -0.3355 0.0026
vn -0.9418 0.3362 0.0026
vn -0.9420 0.3356 0.0036
vn 0.0000 1.0000 0.0044
vn 0.0000 1.0000 0.0045
vn 0.9418 0.3361 0.0036
vn 0.9420 0.3355 0.0026
vn -0.2147 -0.2381 0.9472
vn -0.2157 -0.2390 0.9468
vn 0.2155 -0.2391 0.9468
vn 0.2149 -0.2380 0.9472
vn 0.3829 0.0000 0.9238
vn 0.2147 0.2381 0.9472
vn -0.2155 0.2391 0.9468
vn -0.2149 0.2380 0.9472
vn -0.3829 0.0000 0.9238
vn -0.6065 -0.2492 0.7551
vn -0.6073 -0.2472 0.7550
vn 0.0000 -0.5144 0.8575
vn 0.6061 -0.2490 0.7554
vn 0.6076 -0.2474 0.7547
vn 0.6065 0.2492 0.7551
vn 0.6073 0.2472 0.7550
vn 0.0000 0.5144 0.8575
vn -0.6061 0.2490 0.7554
vn -0.6076 0.2474 0.7547
vn 0.2159 -0.2395 -0.9466
vn 0.2170 -0.2404 -0.9461
vn 0.2168 0.2405 -0.9461
vn 0.2161 0.2394 -0.9466
vn 0.3846 0.0000 -0.9231
vn -0.2168 -0.2405 -0.9461
vn -0.3846 0.0000 -0.9231
vn -0.2159 0.2395 -0.9466
vn -0.2169 0.2404 -0.9461
vn 0.6736 -0.7391 0.0027
vn 0.6736 -0.7391 0.0026
vn 0.0000 -0.5178 -0.8555
vn 0.6094 -0.2505 -0.7522
vn 0.6102 -0.2486 -0.7522
vn -0.6736 -0.7391 0.0026
vn -0.6736 -0.7391 0.0028
vn -0.6091 -0.2504 -0.7526
vn -0.6106 -0.2488 -0.7519
vn -1.0000 0.0000 0.0026
vn -0.6094 0.2505 -0.7522
vn -0.6102 0.2486 -0.7522
vn -0.6736 0.7391 0.0027
vn -0.6736 0.7391 0.0026
vn 0.0000 0.5178 -0.8555
vn 0.6736 0.7391 0.0026
vn 0.6736 0.7391 0.0027
vn 0.6091 0.2504 -0.7526
vn 0.6106 0.2488 -0.7519
vn 1.0000 0.0000 0.0026
vn 0.2157 0.2390 0.9468
vn -0.2161 -0.2394 -0.9466
g Object_3_Mesh_0_Material__2
usemtl Material__2
s off
f 1//1 2//1 3//1
f 4//1 1//1 3//1
f 4//1 3//1 5//1
f 6//1 4//1 5//1
f 7//2 8//2 9//2
f 10//3 11//3 12//3
f 13//4 14//4 15//4
f 16//5 17//5 18//5
f 19//6 20//6 21//6
f 21//6 22//6 19//6
f 23//7 24//7 25//7
f 26//8 27//8 28//8
f 29//9 30//9 31//9
f 32//10 33//10 34//10
f 35//11 36//11 37//11
f 37//11 38//11 35//11
f 39//12 40//12 41//12
f 42//12 39//12 41//12
f 42//12 41//12 43//12
f 44//12 42//12 43//12
f 45//13 46//13 47//13
f 48//14 49//14 50//14
f 51//15 52//15 53//15
f 54//16 55//16 56//16
f 57//17 58//17 59//17
f 59//17 60//17 57//17
f 61//18 62//18 63//18
f 64//19 65//19 66//19
f 67//20 68//20 69//20
f 70//21 71//21 72//21
f 73//22 74//22 75//22
f 75//22 76//22 73//22
f 77//23 78//23 79//23
f 80//24 81//24 82//24
f 83//25 84//25 85//25
f 86//26 87//26 88//26
f 89//27 90//27 91//27
f 92//28 93//28 94//28
f 95//29 96//29 97//29
f 98//30 99//30 100//30
f 101//31 102//31 103//31
f 104//32 105//32 106//32
f 107//33 108//33 109//33
f 110//34 111//34 112//34
f 113//35 114//35 115//35
f 116//36 117//36 118//36
f 119//37 120//37 121//37
f 121//37 122//37 119//37
f 123//38 124//38 125//38
f 126//39 127//39 128//39
f 129//40 130//40 131//40
f 132//41 133//41 134//41
f 135//42 136//42 137//42
f 137//43 138//43 135//43
f 139//44 140//44 141//44
f 142//45 143//45 144//45
f 145//46 146//46 147//46
f 148//47 149//47 150//47
f 151//48 152//48 153//48
f 154//49 155//49 156//49
f 157//50 158//50 159//50
f 159//50 160//50 157//50
f 161//51 162//51 163//51
f 167//52 168//52 169//52
f 170//53 171//53 172//53
f 173//54 174//54 175//54
f 175//54 176//54 173//54
f 177//55 178//55 179//55
f 180//56 181//56 182//56
f 183//57 184//57 185//57
f 185//57 186//57 183//57
f 187//58 188//58 189//58
f 190//59 191//59 192//59
f 193//60 194//60 195//60
f 196//61 197//61 198//61
f 199//62 200//62 201//62
f 201//62 202//62 199//62
f 203//63 204//63 205//63
f 206//64 207//64 208//64
f 209//65 210//65 211//65
f 212//66 213//66 214//66
f 215//67 216//67 217//67
f 218//68 219//68 220//68
f 221//69 222//69 223//69
f 223//69 224//69 221//69
f 225//70 226//70 227//70
f 231//71 232//71 233//71
f 233//71 234//71 231//71
f 235//72 236//72 237//72
f 238//73 239//73 240//73
f 241//74 242//74 243//74
f 243//75 244//75 241//75
f 245//76 246//76 247//76
f 247//76 248//76 245//76
f 249//77 250//77 251//77
f 252//78 253//78 254//78
f 255//79 256//79 257//79
f 257//80 258//80 255//80
f 259//81 260//81 261//81
f 262//82 263//82 264//82
f 265//83 266//83 267//83
f 267//83 268//83 265//83
f 269//84 270//84 271//84
f 272//85 273//85 274//85
f 275//86 276//86 277//86
f 277//87 278//87 275//87
f 279//88 280//88 281//88
f 281//88 282//88 279//88
f 283//89 284//89 285//89
f 285//90 286//90 283//90
f 287//91 288//91 289//91
f 290//92 291//92 292//92
f 293//93 294//93 295//93
f 295//93 296//93 293//93
s 1
f 164//94 165//94 166//94
f 228//95 229//95 230//95
