{
  "accessors": [
    {
      "bufferView": 1,
      "componentType": 5126,
      "count": 296,
      "max": [
        9.6316003799438477,
        4.175300121307373,
        22.118400573730469
      ],
      "min": [
        -9.6316003799438477,
        -4.175300121307373,
        -12.159600257873535
      ],
      "type": "VEC3"
    },
    {
      "bufferView": 1,
      "byteOffset": 3552,
      "componentType": 5126,
      "count": 296,
      "max": [
        0.99999690055847168,
        1,
        0.99998986721038818
      ],
      "min": [
        -0.99999690055847168,
        -1,
        -0.99998986721038818
      ],
      "type": "VEC3"
    },
    {
      "bufferView": 2,
      "componentType": 5126,
      "count": 296,
      "max": [
        1,
        0.9999963641166687,
        0.67359787225723267,
        1
      ],
      "min": [
        -1,
        -0.9999963641166687,
        -0.76180434226989746,
        1
      ],
      "type": "VEC4"
    },
    {
      "bufferView": 0,
      "componentType": 5125,
      "count": 348,
      "max": [
        295
      ],
      "min": [
        0
      ],
      "type": "SCALAR"
    }
  ],
  "asset": {
    "extras": {
      "author": "Elhiot (https://sketchfab.com/elhiot)",
      "license": "CC-BY-4.0 (http://creativecommons.org/licenses/by/4.0/)",
      "source": "https://sketchfab.com/models/0efd5cbc4c3d48c6b6ab8d0a19c061ee",
      "title": "Rubis_Zelda"
    },
    "generator": "Sketchfab-3.26.0",
    "version": "2.0"
  },
  "bufferViews": [
    {
      "buffer": 0,
      "byteLength": 1392,
      "byteOffset": 0,
      "name": "floatBufferViews",
      "target": 34963
    },
    {
      "buffer": 0,
      "byteLength": 7104,
      "byteOffset": 1392,
      "byteStride": 12,
      "name": "floatBufferViews",
      "target": 34962
    },
    {
      "buffer": 0,
      "byteLength": 4736,
      "byteOffset": 8496,
      "byteStride": 16,
      "name": "floatBufferViews",
      "target": 34962
    }
  ],
  "buffers": [
    {
      "byteLength": 13232,
      "uri": "scene.bin"
    }
  ],
  "materials": [
    {
      "doubleSided": true,
      "emissiveFactor": [
        0,
        0,
        0
      ],
      "name": "Material__2",
      "pbrMetallicRoughness": {
        "baseColorFactor": [
          0.096945480099999995,
          0.74943454239999996,
          0.037732612700000001,
          1
        ],
        "metallicFactor": 1,
        "roughnessFactor": 0.40000000000000002
      }
    }
  ],
  "meshes": [
    {
      "primitives": [
        {
          "attributes": {
            "NORMAL": 1,
            "POSITION": 0,
            "TANGENT": 2
          },
          "indices": 3,
          "material": 0,
          "mode": 4
        }
      ]
    }
  ],
  "nodes": [
    {
      "children": [
        1
      ],
      "name": "RootNode (gltf orientation matrix)",
      "rotation": [
        -0.70710678118654746,
        -0,
        -0,
        0.70710678118654757
      ]
    },
    {
      "children": [
        2
      ],
      "name": "RootNode (model correction matrix)"
    },
    {
      "children": [
        3
      ],
      "name": "Rubis_Zelda.obj.cleaner"
    },
    {
      "mesh": 0,
      "name": ""
    }
  ],
  "scene": 0,
  "scenes": [
    {
      "name": "OSG_Scene",
      "nodes": [
        0
      ]
    }
  ]
}

